{"title":"Ant-Man.2015.BRRip.480p.x264.AAC-VYTO [P2PDL]","uid":12886864,"size":468020748,"categoryP":"video","categoryS":"movies","magnet":"?xt=urn:btih:a0f19aa9c0a872addb27db968722446ba296f403&amp;dn=Ant-Man.2015.BRRip.480p.x264.AAC-VYTO+%5BP2PDL%5D&amp;tr=udp%3A%2F%2Ftracker.leechers-paradise.org%3A6969&amp;tr=udp%3A%2F%2Fzer0day.ch%3A1337&amp;tr=udp%3A%2F%2Fopen.demonii.com%3A1337&amp;tr=udp%3A%2F%2Ftracker.coppersurfer.tk%3A6969&amp;tr=udp%3A%2F%2Fexodus.desync.com%3A6969","seeders":2,"leechers":3,"uploader":"VYTOP2PDL","files":7,"time":1449069384,"description":"Ant-Man.2015.BRRip.480p.x264.AAC-VYTO\r\n\r\n\r\nGenre: Action, Adventure, Sci-Fi    \nhttp://www.imdb.com/title/tt0478970/\r\n\r\n\r\nGeneral\r\nFormat                         : MPEG-4\r\nFile size                      : 438 MiB\r\nDuration                       : 1h 57mn\r\nOverall bit rate               : 522 Kbps\r\n\r\nVideo\r\nFormat                         : AVC\r\nBit rate                       : 487 Kbps\r\nWidth                          : 720 pixels\r\nHeight                         : 384 pixels\r\nDisplay aspect ratio           : 1.85:1\r\nFrame rate mode                : Constant\r\nFrame rate                     : 23.976 fps\r\nBit depth                      : 8 bits\r\nStream size                    : 408 MiB (93%)\r\nWriting library                : x264\r\n\r\nAudio\r\nFormat                         : AAC\r\nBit rate mode                  : Variable\r\nBit rate                       : 32.0 Kbps\r\nChannel(s)                     : 2 channels\r\nChannel positions              : Front: L R\r\nSampling rate                  : 48.0 KHz\r\nStream size                    : 26.8 MiB (6%)\r\nLanguage                       : English\r\n\r\nSubtitle                       : Yes (English)\r\n \nhttp://ititli.com/viewimage/mw \nhttp://ititli.com/viewimage/mn \nhttp://ititli.com/viewimage/mg \nhttp://ititli.com/viewimage/mW \nhttp://ititli.com/viewimage/mT \nhttp://ititli.com/viewimage/m1 \nhttp://ititli.com/viewimage/mr\r\n\r\n\r\n----------------------------------------------------------------------------------------------------\r\n\r\n\r\nEncoder Notes: Looking For Early Access To Anything You Can Provide DVDScr, R5, DVDR, BluRay, Direct\r\nAudio, Music Releases and Seedboxes. If You Got anything to offer please contact us.\r\n\r\nSupport us by donating BC - 1FgwdzPsd1y25Gea8wP1qni35uGCtmkRCD","torrent":{"xt":"urn:btih:a0f19aa9c0a872addb27db968722446ba296f403","amp;dn":"Ant-Man.2015.BRRip.480p.x264.AAC-VYTO+%5BP2PDL%5D","amp;tr":["udp%3A%2F%2Ftracker.leechers-paradise.org%3A6969","udp%3A%2F%2Fzer0day.ch%3A1337","udp%3A%2F%2Fopen.demonii.com%3A1337","udp%3A%2F%2Ftracker.coppersurfer.tk%3A6969","udp%3A%2F%2Fexodus.desync.com%3A6969"],"infoHash":"a0f19aa9c0a872addb27db968722446ba296f403","infoHashBuffer":{"type":"Buffer","data":[160,241,154,169,192,168,114,173,219,39,219,150,135,34,68,107,162,150,244,3]},"announce":[],"urlList":[]}}